<?xml version="1.0" standalone="no"?>
<!DOCTYPE svg PUBLIC "-//W3C//DTD SVG 20010904//EN"
 "http://www.w3.org/TR/2001/REC-SVG-20010904/DTD/svg10.dtd">
<svg version="1.0" xmlns="http://www.w3.org/2000/svg"
 width="512.000000pt" height="512.000000pt" viewBox="0 0 512.000000 512.000000"
 preserveAspectRatio="xMidYMid meet">

<g transform="translate(0.000000,512.000000) scale(0.100000,-0.100000)"
fill="#000000" stroke="none">
<path d="M1654 5102 c-97 -34 -181 -125 -203 -222 -6 -25 -11 -139 -11 -255 0
-244 8 -273 81 -322 l43 -28 600 -3 c410 -2 613 0 638 8 45 13 93 52 114 92 8
16 18 67 21 114 l6 85 403 -3 404 -3 26 -26 c21 -22 26 -37 28 -80 1 -44 -2
-53 -14 -50 -8 2 -71 6 -140 8 -266 10 -489 -74 -682 -256 -398 -376 -408
-982 -24 -1367 212 -211 503 -309 804 -271 l62 8 -2 -1161 -3 -1162 -33 -29
-32 -29 -1546 0 c-1680 0 -1586 -3 -1612 55 -9 20 -12 526 -12 2156 0 2317 -4
2170 55 2197 18 8 109 12 299 12 272 0 273 0 294 23 29 31 28 72 -3 103 l-25
25 -293 -3 c-292 -3 -293 -3 -342 -29 -56 -28 -109 -91 -125 -147 -7 -25 -10
-735 -10 -2187 1 -1770 3 -2157 14 -2188 20 -55 61 -103 114 -134 l47 -28
1575 -3 c1748 -3 1631 -7 1704 64 20 19 46 54 59 77 l22 42 3 1195 2 1196 78
38 c191 94 355 260 442 449 41 88 77 221 85 313 6 72 5 82 -15 107 -16 20 -30
27 -55 27 -48 0 -71 -33 -78 -117 -27 -281 -205 -534 -460 -653 -159 -75 -371
-95 -536 -51 -197 52 -369 174 -475 339 -92 141 -129 270 -129 442 -1 223 71
397 233 561 99 100 185 154 320 201 90 31 102 32 240 32 167 1 228 -12 355
-75 141 -69 156 -33 -137 -326 l-257 -257 -143 140 c-117 115 -153 144 -193
157 -119 41 -240 -4 -297 -110 -37 -68 -43 -121 -23 -190 16 -56 27 -68 263
-306 155 -156 262 -255 287 -267 56 -27 154 -27 209 0 27 13 206 185 527 507
524 526 512 511 512 617 -1 135 -106 239 -243 240 -81 0 -130 -24 -217 -106
l-62 -60 -43 30 c-24 16 -75 45 -114 65 l-71 36 -5 83 c-8 129 -49 201 -143
251 -39 21 -51 22 -456 25 l-416 3 -7 72 c-3 40 -13 93 -22 119 -20 61 -92
141 -158 176 l-51 27 -500 2 c-458 3 -504 1 -551 -15z m1053 -158 c15 -11 38
-36 51 -54 22 -33 22 -39 20 -249 l-3 -216 -579 -3 c-419 -1 -583 1 -592 9
-11 9 -14 54 -14 209 0 186 1 199 23 240 16 30 37 51 67 67 l44 24 477 -3
c467 -3 478 -3 506 -24z m1824 -720 c25 -23 37 -64 28 -99 -6 -21 -148 -170
-476 -497 l-468 -468 -45 0 -44 0 -228 227 c-234 234 -258 265 -239 315 13 36
58 68 94 68 25 0 57 -27 207 -175 158 -156 181 -175 211 -175 30 0 69 35 443
409 226 225 418 411 426 414 23 9 72 -1 91 -19z"/>
<path d="M852 3990 c-14 -14 -22 -33 -22 -55 0 -22 8 -41 22 -55 21 -19 34
-20 300 -20 l279 0 24 25 c14 13 25 36 25 50 0 14 -11 37 -25 50 l-24 25 -279
0 c-266 0 -279 -1 -300 -20z"/>
<path d="M973 3286 c-91 -30 -148 -81 -189 -170 -23 -51 -26 -67 -22 -136 6
-96 42 -167 113 -222 154 -117 365 -66 461 112 15 27 19 56 19 125 0 99 -15
140 -76 209 -66 76 -209 114 -306 82z m161 -159 c65 -37 96 -129 65 -190 -53
-103 -170 -123 -249 -43 -28 29 -34 45 -38 90 -4 44 0 62 18 91 44 71 132 93
204 52z"/>
<path d="M1495 3210 c-25 -28 -23 -76 4 -103 21 -22 23 -22 479 -25 251 -2
472 0 490 3 38 7 72 40 72 71 0 12 -9 33 -21 48 l-20 26 -493 0 c-481 0 -493
0 -511 -20z"/>
<path d="M1525 2880 c-49 -19 -64 -82 -30 -120 18 -20 30 -20 511 -20 l493 0
20 26 c34 43 24 86 -26 112 -26 14 -935 16 -968 2z"/>
<path d="M995 2371 c-92 -24 -163 -80 -204 -163 -77 -154 -10 -339 148 -412
34 -15 67 -21 121 -21 122 0 213 56 272 168 19 35 23 58 23 132 0 81 -3 95
-30 144 -33 59 -78 101 -142 131 -49 23 -142 33 -188 21z m144 -169 c98 -72
93 -205 -9 -259 -52 -28 -82 -29 -136 -4 -59 27 -88 77 -82 145 5 63 28 98 83
126 47 25 105 22 144 -8z"/>
<path d="M1495 2300 c-28 -31 -24 -79 9 -107 l27 -23 634 0 634 0 27 23 c34
30 36 83 3 109 -20 17 -66 18 -669 18 -636 0 -647 0 -665 -20z"/>
<path d="M1534 1973 c-55 -11 -76 -85 -35 -126 21 -22 28 -22 329 -25 169 -2
322 0 340 3 85 16 98 114 18 145 -26 10 -604 13 -652 3z"/>
<path d="M1009 1459 c-91 -14 -177 -77 -221 -162 -29 -58 -36 -168 -14 -235
22 -64 84 -135 150 -170 44 -23 63 -27 136 -27 69 0 93 4 127 23 68 36 114 83
145 147 103 219 -82 462 -323 424z m101 -154 c57 -16 100 -79 100 -148 0 -109
-120 -180 -220 -129 -99 49 -109 187 -18 256 45 34 75 38 138 21z"/>
<path d="M1507 1399 c-45 -26 -39 -106 9 -128 18 -8 166 -11 500 -11 l475 0
24 25 c14 13 25 36 25 50 0 14 -11 37 -25 50 l-24 25 -483 0 c-319 -1 -489 -4
-501 -11z"/>
<path d="M1499 1042 c-33 -27 -30 -78 5 -109 l27 -23 634 0 634 0 27 23 c34
30 36 83 3 109 -20 17 -66 18 -664 18 -610 0 -644 -1 -666 -18z"/>
</g>
</svg>
